<svg width="66" height="23" viewBox="0 0 66 23" fill="none" xmlns="http://www.w3.org/2000/svg">
<path d="M0.5 11.5571C0.5 5.482 5.42487 0.557129 11.5 0.557129H54.5C60.5751 0.557129 65.5 5.482 65.5 11.5571C65.5 17.6323 60.5751 22.5571 54.5 22.5571H11.5C5.42487 22.5571 0.5 17.6323 0.5 11.5571Z" fill="white"/>
<path d="M15.6426 7.02588V15.5571H14.5293V7.02588H15.6426ZM18.3848 7.02588V7.95166H11.793V7.02588H18.3848ZM20.3641 9.21729V15.5571H19.2742V9.21729H20.3641ZM19.1922 7.53564C19.1922 7.35986 19.2449 7.21143 19.3504 7.09033C19.4598 6.96924 19.6199 6.90869 19.8309 6.90869C20.0379 6.90869 20.1961 6.96924 20.3055 7.09033C20.4187 7.21143 20.4754 7.35986 20.4754 7.53564C20.4754 7.70361 20.4187 7.84814 20.3055 7.96924C20.1961 8.08643 20.0379 8.14502 19.8309 8.14502C19.6199 8.14502 19.4598 8.08643 19.3504 7.96924C19.2449 7.84814 19.1922 7.70361 19.1922 7.53564ZM22.8824 10.4771V15.5571H21.7926V9.21729H22.8238L22.8824 10.4771ZM22.6598 12.147L22.1559 12.1294C22.1598 11.6958 22.2164 11.2954 22.3258 10.9282C22.4352 10.5571 22.5973 10.2349 22.8121 9.96143C23.027 9.68799 23.2945 9.47705 23.6148 9.32861C23.9352 9.17627 24.3062 9.1001 24.7281 9.1001C25.025 9.1001 25.2984 9.14307 25.5484 9.229C25.7984 9.31104 26.0152 9.44189 26.1988 9.62158C26.3824 9.80127 26.525 10.0317 26.6266 10.313C26.7281 10.5942 26.7789 10.9341 26.7789 11.3325V15.5571H25.6949V11.3853C25.6949 11.0532 25.6383 10.7876 25.525 10.5884C25.4156 10.3892 25.2594 10.2446 25.0562 10.1548C24.8531 10.061 24.6148 10.0142 24.3414 10.0142C24.0211 10.0142 23.7535 10.0708 23.5387 10.1841C23.3238 10.2974 23.152 10.4536 23.023 10.6528C22.8941 10.8521 22.8004 11.0806 22.7418 11.3384C22.6871 11.5923 22.6598 11.8618 22.6598 12.147ZM26.7672 11.5493L26.0406 11.772C26.0445 11.4243 26.1012 11.0903 26.2105 10.77C26.3238 10.4497 26.4859 10.1646 26.6969 9.91455C26.9117 9.66455 27.1754 9.46729 27.4879 9.32275C27.8004 9.17432 28.1578 9.1001 28.5602 9.1001C28.9 9.1001 29.2008 9.14502 29.4625 9.23486C29.7281 9.32471 29.9508 9.46338 30.1305 9.65088C30.3141 9.83447 30.4527 10.0708 30.5465 10.3599C30.6402 10.6489 30.6871 10.9927 30.6871 11.3911V15.5571H29.5973V11.3794C29.5973 11.0239 29.5406 10.7485 29.4273 10.5532C29.318 10.354 29.1617 10.2153 28.9586 10.1372C28.7594 10.0552 28.5211 10.0142 28.2437 10.0142C28.0055 10.0142 27.7945 10.0552 27.6109 10.1372C27.4273 10.2192 27.273 10.3325 27.148 10.4771C27.023 10.6177 26.9273 10.7798 26.8609 10.9634C26.7984 11.147 26.7672 11.3423 26.7672 11.5493ZM34.6586 15.6743C34.2172 15.6743 33.8168 15.6001 33.4574 15.4517C33.102 15.2993 32.7953 15.0864 32.5375 14.813C32.2836 14.5396 32.0883 14.2153 31.9516 13.8403C31.8148 13.4653 31.7465 13.0552 31.7465 12.6099V12.3638C31.7465 11.8481 31.8227 11.3892 31.975 10.9868C32.1273 10.5806 32.3344 10.2368 32.5961 9.95557C32.8578 9.67432 33.1547 9.46143 33.4867 9.31689C33.8188 9.17236 34.1625 9.1001 34.518 9.1001C34.9711 9.1001 35.3617 9.17822 35.6898 9.33447C36.0219 9.49072 36.2934 9.70947 36.5043 9.99072C36.7152 10.2681 36.8715 10.5962 36.973 10.9751C37.0746 11.3501 37.1254 11.7603 37.1254 12.2056V12.6919H32.391V11.8071H36.0414V11.7251C36.0258 11.4438 35.9672 11.1704 35.8656 10.9048C35.768 10.6392 35.6117 10.4204 35.3969 10.2485C35.182 10.0767 34.8891 9.99072 34.518 9.99072C34.2719 9.99072 34.0453 10.0435 33.8383 10.1489C33.6313 10.2505 33.4535 10.4028 33.3051 10.606C33.1566 10.8091 33.0414 11.0571 32.9594 11.3501C32.8773 11.6431 32.8363 11.981 32.8363 12.3638V12.6099C32.8363 12.9106 32.8773 13.1938 32.9594 13.4595C33.0453 13.7212 33.1684 13.9517 33.3285 14.1509C33.4926 14.3501 33.6898 14.5063 33.9203 14.6196C34.1547 14.7329 34.4203 14.7896 34.7172 14.7896C35.1 14.7896 35.4242 14.7114 35.6898 14.5552C35.9555 14.3989 36.1879 14.1899 36.3871 13.9282L37.0434 14.4497C36.9066 14.6567 36.7328 14.854 36.5219 15.0415C36.3109 15.229 36.0512 15.3813 35.7426 15.4985C35.4379 15.6157 35.0766 15.6743 34.6586 15.6743Z" fill="black"/>
<path d="M43.44 9.28369L46.5 12.337L49.56 9.28369L50.5 10.2237L46.5 14.2237L42.5 10.2237L43.44 9.28369Z" fill="#C4C4C4"/>
<path d="M11.5 1.05713H54.5V0.0571289H11.5V1.05713ZM54.5 22.0571H11.5V23.0571H54.5V22.0571ZM11.5 22.0571C5.70101 22.0571 1 17.3561 1 11.5571H0C0 17.9084 5.14873 23.0571 11.5 23.0571V22.0571ZM65 11.5571C65 17.3561 60.299 22.0571 54.5 22.0571V23.0571C60.8513 23.0571 66 17.9084 66 11.5571H65ZM54.5 1.05713C60.299 1.05713 65 5.75814 65 11.5571H66C66 5.20585 60.8513 0.0571289 54.5 0.0571289V1.05713ZM11.5 0.0571289C5.14873 0.0571289 0 5.20585 0 11.5571H1C1 5.75814 5.70101 1.05713 11.5 1.05713V0.0571289Z" fill="#DFDFDF"/>
</svg>
