<svg width="77" height="23" viewBox="0 0 77 23" fill="none" xmlns="http://www.w3.org/2000/svg">
<path d="M0.5 11.8752C0.5 5.80011 5.42487 0.875244 11.5 0.875244H65.5C71.5751 0.875244 76.5 5.80011 76.5 11.8752C76.5 17.9504 71.5751 22.8752 65.5 22.8752H11.5C5.42487 22.8752 0.5 17.9504 0.5 11.8752Z" fill="white"/>
<path d="M12.4902 7.34399H15.3145C15.9551 7.34399 16.4961 7.44165 16.9375 7.63696C17.3828 7.83228 17.7207 8.12134 17.9512 8.50415C18.1855 8.88306 18.3027 9.34985 18.3027 9.90454C18.3027 10.2952 18.2227 10.6526 18.0625 10.9768C17.9062 11.2971 17.6797 11.5706 17.3828 11.7971C17.0898 12.0198 16.7383 12.1858 16.3281 12.2952L16.0117 12.4182H13.3574L13.3457 11.4983H15.3496C15.7559 11.4983 16.0938 11.428 16.3633 11.2874C16.6328 11.1428 16.8359 10.9495 16.9727 10.7073C17.1094 10.4651 17.1777 10.1975 17.1777 9.90454C17.1777 9.57642 17.1133 9.28931 16.9844 9.04321C16.8555 8.79712 16.6523 8.60767 16.375 8.47485C16.1016 8.33813 15.748 8.26978 15.3145 8.26978H13.6211V15.8752H12.4902V7.34399ZM17.4766 15.8752L15.4023 12.0081L16.5801 12.0022L18.6836 15.8049V15.8752H17.4766ZM22.0516 15.9924C21.6102 15.9924 21.2098 15.9182 20.8504 15.7698C20.4949 15.6174 20.1883 15.4045 19.9305 15.1311C19.6766 14.8577 19.4812 14.5334 19.3445 14.1584C19.2078 13.7834 19.1395 13.3733 19.1395 12.928V12.6819C19.1395 12.1663 19.2156 11.7073 19.368 11.3049C19.5203 10.8987 19.7273 10.5549 19.9891 10.2737C20.2508 9.99243 20.5477 9.77954 20.8797 9.63501C21.2117 9.49048 21.5555 9.41821 21.9109 9.41821C22.3641 9.41821 22.7547 9.49634 23.0828 9.65259C23.4148 9.80884 23.6863 10.0276 23.8973 10.3088C24.1082 10.5862 24.2645 10.9143 24.366 11.2932C24.4676 11.6682 24.5184 12.0784 24.5184 12.5237V13.01H19.784V12.1252H23.4344V12.0432C23.4187 11.762 23.3602 11.4885 23.2586 11.2229C23.1609 10.9573 23.0047 10.7385 22.7898 10.5667C22.575 10.3948 22.282 10.3088 21.9109 10.3088C21.6648 10.3088 21.4383 10.3616 21.2312 10.467C21.0242 10.5686 20.8465 10.7209 20.698 10.9241C20.5496 11.1272 20.4344 11.3752 20.3523 11.6682C20.2703 11.9612 20.2293 12.2991 20.2293 12.6819V12.928C20.2293 13.2288 20.2703 13.512 20.3523 13.7776C20.4383 14.0393 20.5613 14.2698 20.7215 14.469C20.8855 14.6682 21.0828 14.8245 21.3133 14.9377C21.5477 15.051 21.8133 15.1077 22.1102 15.1077C22.493 15.1077 22.8172 15.0295 23.0828 14.8733C23.3484 14.717 23.5809 14.5081 23.7801 14.2463L24.4363 14.7678C24.2996 14.9749 24.1258 15.1721 23.9148 15.3596C23.7039 15.5471 23.4441 15.6995 23.1355 15.8167C22.8309 15.9338 22.4695 15.9924 22.0516 15.9924ZM29.1754 14.1936C29.1754 14.0374 29.1402 13.8928 29.0699 13.76C29.0035 13.6233 28.8648 13.5002 28.6539 13.3909C28.4469 13.2776 28.1344 13.1799 27.7164 13.0979C27.3648 13.0237 27.0465 12.9358 26.7613 12.8342C26.4801 12.7327 26.2398 12.6096 26.0406 12.4651C25.8453 12.3206 25.6949 12.1506 25.5895 11.9553C25.484 11.76 25.4312 11.5315 25.4312 11.2698C25.4312 11.0198 25.4859 10.7834 25.5953 10.5608C25.7086 10.3381 25.8668 10.1409 26.0699 9.96899C26.277 9.79712 26.525 9.66235 26.8141 9.5647C27.1031 9.46704 27.4254 9.41821 27.7809 9.41821C28.2887 9.41821 28.7223 9.50806 29.0816 9.68774C29.441 9.86743 29.7164 10.1077 29.9078 10.4084C30.0992 10.7053 30.1949 11.0354 30.1949 11.3987H29.1109C29.1109 11.2229 29.0582 11.053 28.9527 10.8889C28.8512 10.7209 28.7008 10.5823 28.5016 10.4729C28.3062 10.3635 28.066 10.3088 27.7809 10.3088C27.4801 10.3088 27.2359 10.3557 27.0484 10.4495C26.8648 10.5393 26.7301 10.6545 26.6441 10.7952C26.5621 10.9358 26.5211 11.0842 26.5211 11.2405C26.5211 11.3577 26.5406 11.4631 26.5797 11.5569C26.6227 11.6467 26.6969 11.7307 26.8023 11.8088C26.9078 11.8831 27.0562 11.9534 27.2477 12.0198C27.4391 12.0862 27.6832 12.1526 27.9801 12.219C28.4996 12.3362 28.9273 12.4768 29.2633 12.6409C29.5992 12.8049 29.8492 13.0061 30.0133 13.2444C30.1773 13.4827 30.2594 13.7717 30.2594 14.1116C30.2594 14.3889 30.2008 14.6428 30.0836 14.8733C29.9703 15.1038 29.8043 15.303 29.5855 15.4709C29.3707 15.635 29.1129 15.7639 28.8121 15.8577C28.5152 15.9475 28.1812 15.9924 27.8102 15.9924C27.2516 15.9924 26.7789 15.8928 26.3922 15.6936C26.0055 15.4944 25.7125 15.2366 25.5133 14.9202C25.3141 14.6038 25.2145 14.2698 25.2145 13.9182H26.3043C26.3199 14.2151 26.4059 14.4514 26.5621 14.6272C26.7184 14.7991 26.9098 14.9221 27.1363 14.9963C27.3629 15.0667 27.5875 15.1018 27.8102 15.1018C28.107 15.1018 28.3551 15.0627 28.5543 14.9846C28.7574 14.9065 28.9117 14.7991 29.0172 14.6624C29.1227 14.5256 29.1754 14.3694 29.1754 14.1936ZM35.2621 14.4104V9.5354H36.352V15.8752H35.3148L35.2621 14.4104ZM35.4672 13.0745L35.9184 13.0627C35.9184 13.4846 35.8734 13.8752 35.7836 14.2346C35.6977 14.5901 35.557 14.8987 35.3617 15.1604C35.1664 15.4221 34.9105 15.6272 34.5941 15.7756C34.2777 15.9202 33.893 15.9924 33.4398 15.9924C33.1313 15.9924 32.848 15.9475 32.5902 15.8577C32.3363 15.7678 32.1176 15.6292 31.934 15.4417C31.7504 15.2542 31.6078 15.01 31.5063 14.7092C31.4086 14.4084 31.3598 14.0471 31.3598 13.6252V9.5354H32.4438V13.637C32.4438 13.9221 32.475 14.1584 32.5375 14.3459C32.6039 14.5295 32.6918 14.676 32.8012 14.7854C32.9145 14.8909 33.0395 14.9651 33.1762 15.0081C33.3168 15.051 33.4613 15.0725 33.6098 15.0725C34.0707 15.0725 34.4359 14.9846 34.7055 14.8088C34.975 14.6292 35.1684 14.3889 35.2855 14.0881C35.4066 13.7834 35.4672 13.4456 35.4672 13.0745ZM38.882 6.87524V15.8752H37.7922V6.87524H38.882ZM42.9766 9.5354V10.3674H39.5488V9.5354H42.9766ZM40.709 7.99438H41.793V14.3049C41.793 14.5198 41.8262 14.6819 41.8926 14.7913C41.959 14.9006 42.0449 14.9729 42.1504 15.0081C42.2559 15.0432 42.3691 15.0608 42.4902 15.0608C42.5801 15.0608 42.6738 15.053 42.7715 15.0374C42.873 15.0178 42.9492 15.0022 43 14.9905L43.0059 15.8752C42.9199 15.9026 42.8066 15.928 42.666 15.9514C42.5293 15.9788 42.3633 15.9924 42.168 15.9924C41.9023 15.9924 41.6582 15.9397 41.4355 15.8342C41.2129 15.7288 41.0352 15.553 40.9023 15.3069C40.7734 15.0569 40.709 14.7209 40.709 14.2991V7.99438ZM47.6395 14.1936C47.6395 14.0374 47.6043 13.8928 47.534 13.76C47.4676 13.6233 47.3289 13.5002 47.118 13.3909C46.9109 13.2776 46.5984 13.1799 46.1805 13.0979C45.8289 13.0237 45.5105 12.9358 45.2254 12.8342C44.9441 12.7327 44.7039 12.6096 44.5047 12.4651C44.3094 12.3206 44.159 12.1506 44.0535 11.9553C43.948 11.76 43.8953 11.5315 43.8953 11.2698C43.8953 11.0198 43.95 10.7834 44.0594 10.5608C44.1727 10.3381 44.3309 10.1409 44.534 9.96899C44.741 9.79712 44.9891 9.66235 45.2781 9.5647C45.5672 9.46704 45.8895 9.41821 46.2449 9.41821C46.7527 9.41821 47.1863 9.50806 47.5457 9.68774C47.9051 9.86743 48.1805 10.1077 48.3719 10.4084C48.5633 10.7053 48.659 11.0354 48.659 11.3987H47.575C47.575 11.2229 47.5223 11.053 47.4168 10.8889C47.3152 10.7209 47.1648 10.5823 46.9656 10.4729C46.7703 10.3635 46.5301 10.3088 46.2449 10.3088C45.9441 10.3088 45.7 10.3557 45.5125 10.4495C45.3289 10.5393 45.1941 10.6545 45.1082 10.7952C45.0262 10.9358 44.9852 11.0842 44.9852 11.2405C44.9852 11.3577 45.0047 11.4631 45.0438 11.5569C45.0867 11.6467 45.1609 11.7307 45.2664 11.8088C45.3719 11.8831 45.5203 11.9534 45.7117 12.0198C45.9031 12.0862 46.1473 12.1526 46.4441 12.219C46.9637 12.3362 47.3914 12.4768 47.7273 12.6409C48.0633 12.8049 48.3133 13.0061 48.4773 13.2444C48.6414 13.4827 48.7234 13.7717 48.7234 14.1116C48.7234 14.3889 48.6648 14.6428 48.5477 14.8733C48.4344 15.1038 48.2684 15.303 48.0496 15.4709C47.8348 15.635 47.577 15.7639 47.2762 15.8577C46.9793 15.9475 46.6453 15.9924 46.2742 15.9924C45.7156 15.9924 45.243 15.8928 44.8563 15.6936C44.4695 15.4944 44.1766 15.2366 43.9773 14.9202C43.7781 14.6038 43.6785 14.2698 43.6785 13.9182H44.7684C44.784 14.2151 44.8699 14.4514 45.0262 14.6272C45.1824 14.7991 45.3738 14.9221 45.6004 14.9963C45.827 15.0667 46.0516 15.1018 46.2742 15.1018C46.5711 15.1018 46.8191 15.0627 47.0184 14.9846C47.2215 14.9065 47.3758 14.7991 47.4813 14.6624C47.5867 14.5256 47.6395 14.3694 47.6395 14.1936Z" fill="black"/>
<path d="M54.44 9.60193L57.5 12.6553L60.56 9.60193L61.5 10.5419L57.5 14.5419L53.5 10.5419L54.44 9.60193Z" fill="#C4C4C4"/>
<path d="M11.5 1.37524H65.5V0.375244H11.5V1.37524ZM65.5 22.3752H11.5V23.3752H65.5V22.3752ZM11.5 22.3752C5.70101 22.3752 1 17.6742 1 11.8752H0C0 18.2265 5.14872 23.3752 11.5 23.3752V22.3752ZM76 11.8752C76 17.6742 71.299 22.3752 65.5 22.3752V23.3752C71.8513 23.3752 77 18.2265 77 11.8752H76ZM65.5 1.37524C71.299 1.37524 76 6.07625 76 11.8752H77C77 5.52397 71.8513 0.375244 65.5 0.375244V1.37524ZM11.5 0.375244C5.14873 0.375244 0 5.52397 0 11.8752H1C1 6.07625 5.70101 1.37524 11.5 1.37524V0.375244Z" fill="#DFDFDF"/>
</svg>
